<svg width="160" height="37" viewBox="0 0 160 37" fill="none" xmlns="http://www.w3.org/2000/svg">
<path d="M21.5993 10.8902C20.3532 10.4808 19.1071 10.317 17.861 10.317C17.7779 10.317 17.6948 10.317 17.6948 10.317C17.6118 10.317 17.5287 10.317 17.5287 10.317C15.9503 10.317 14.3719 10.6445 12.8765 11.2177C12.8765 11.2177 12.8765 11.2177 12.7934 11.2177C12.7104 11.2177 12.7104 11.2177 12.6273 11.2177L11.7135 11.709C9.13818 13.0191 6.97824 15.2299 5.73213 17.8502C4.81831 19.7335 4.31986 21.8624 4.31986 23.9913C4.31986 24.237 4.31986 24.4007 4.31986 24.6464V24.7283C4.31986 24.9739 4.31986 25.1377 4.40294 25.3833V25.4652C4.40294 25.629 4.48601 25.8746 4.48601 26.1203V26.2022C4.48601 26.4478 4.56909 26.6116 4.56909 26.8572V26.9391C4.65216 27.1847 4.65216 27.3485 4.73524 27.5942V27.676C4.81831 27.8398 4.81831 28.0036 4.90138 28.1673C3.5722 27.1029 2.40916 25.7927 1.57841 24.3189C0.498446 22.2718 0 20.2248 0 18.0958C0 13.4285 2.5753 9.17065 6.64595 7.12359C8.30743 6.30477 10.1351 5.81348 11.9627 5.81348C13.8734 5.81348 15.618 6.22289 17.3625 7.12359C17.4456 7.20547 17.6118 7.28736 17.7779 7.36924C17.7779 7.36924 17.861 7.36924 17.861 7.45112H17.9441C18.0271 7.533 18.1102 7.533 18.1933 7.61489C18.1933 7.61489 18.2763 7.61489 18.2763 7.69677C18.3594 7.77865 18.4425 7.77865 18.5256 7.86053L18.6086 7.94241L18.6917 8.0243C18.7748 8.10618 18.8579 8.10618 18.9409 8.18806L19.1071 8.26994C19.1902 8.35183 19.2732 8.35183 19.3563 8.43371C19.4394 8.43371 19.4394 8.51559 19.5225 8.51559C19.6055 8.59747 19.6886 8.59747 19.6886 8.67936C19.7717 8.76124 19.7717 8.76124 19.8548 8.84312C19.9378 8.925 20.0209 8.925 20.0209 9.00688C20.104 9.08877 20.104 9.08877 20.1871 9.17065C20.2701 9.25253 20.2701 9.25253 20.3532 9.33441C20.4363 9.4163 20.4363 9.4163 20.5194 9.49818C20.6024 9.58006 20.6024 9.66194 20.6855 9.66194C20.7686 9.74382 20.7686 9.82571 20.8517 9.82571C20.9347 9.90759 20.9347 9.98947 21.0178 9.98947L21.1009 10.0714C21.184 10.1532 21.184 10.2351 21.267 10.317L21.3501 10.3989C21.5162 10.6445 21.5162 10.7264 21.5993 10.8902Z" fill="#05AA77"/>
<path d="M27.3308 31.1966C26.3339 32.5885 25.0047 33.8168 23.5094 34.6356C21.6818 35.7001 19.688 36.1914 17.6111 36.1914C13.042 36.1914 8.97141 33.5711 6.89455 29.3951C6.06381 27.6756 5.64844 25.8742 5.64844 23.909C5.64844 21.9439 6.06381 20.1424 6.89455 18.4229C6.97763 18.2592 7.0607 18.1773 7.14377 18.0135C7.14377 18.0135 7.14377 17.9316 7.22685 17.9316V17.8497C7.30992 17.7679 7.30992 17.686 7.393 17.6041C7.393 17.6041 7.393 17.5222 7.47607 17.5222L7.55915 17.4403C7.64222 17.3584 7.64222 17.2766 7.72529 17.1947L7.80837 17.1128L7.89144 17.0309C7.97452 16.949 7.97452 16.8672 8.05759 16.7853L8.14066 16.7034C8.22374 16.6215 8.22374 16.5396 8.30681 16.4577C8.30681 16.3759 8.38989 16.3759 8.47296 16.294C8.55604 16.2121 8.55604 16.1302 8.63911 16.0483C8.72218 15.9664 8.72218 15.9664 8.80526 15.8846C8.88833 15.8027 8.88833 15.7208 8.97141 15.7208C9.05448 15.6389 9.05448 15.6389 9.13756 15.557C9.22063 15.4752 9.22063 15.3933 9.3037 15.3933C9.38678 15.3114 9.38678 15.3114 9.46985 15.2295C9.55293 15.1476 9.636 15.0657 9.636 15.0657C9.71908 14.9839 9.71908 14.9839 9.80215 14.902C9.88522 14.8201 9.9683 14.8201 9.9683 14.7382L10.0514 14.6563C10.1344 14.5745 10.2175 14.5745 10.2175 14.4926L10.3006 14.4107L10.3837 14.3288C10.4667 14.2469 10.5498 14.2469 10.6329 14.165C10.2175 15.3933 10.0514 16.7034 10.0514 18.0135C10.0514 18.0954 10.0514 18.1773 10.0514 18.2592C10.0514 18.341 10.0514 18.4229 10.0514 18.4229C10.0514 20.0606 10.3837 21.6982 10.9652 23.1721C10.9652 23.254 10.9652 23.3359 10.9652 23.3359L11.4636 24.3184C12.7097 26.9387 14.8697 29.1495 17.445 30.4596C19.3557 31.4422 21.3495 31.9335 23.4263 31.9335C23.5925 31.9335 23.8417 31.9335 24.0909 31.9335H24.174C24.3401 31.9335 24.5894 31.9335 24.8386 31.8516H24.9217C25.0878 31.8516 25.337 31.7697 25.5032 31.7697H25.5863C25.8355 31.7697 26.0016 31.6878 26.1678 31.6878H26.2508C26.5001 31.606 26.6662 31.606 26.8324 31.5241H26.9154C26.9985 31.2784 27.1647 31.1966 27.3308 31.1966Z" fill="#05AA77"/>
<path d="M35.3063 18.0961C35.3063 22.7634 32.731 27.0212 28.6604 29.0683C26.9989 29.8871 25.1713 30.3784 23.3436 30.3784C22.6791 30.3784 21.9314 30.2965 21.2668 30.2147C20.1037 30.0509 19.0238 29.6415 18.0269 29.0683C17.8607 28.9864 17.7777 28.9045 17.6115 28.8227C17.6115 28.8227 17.5284 28.8227 17.5284 28.7408H17.4454C17.3623 28.6589 17.2792 28.6589 17.1962 28.577L17.1131 28.4951L17.03 28.4132C16.9469 28.3314 16.8639 28.3314 16.7808 28.2495L16.6977 28.1676L16.6146 28.2495C16.5316 28.1676 16.4485 28.1676 16.4485 28.0857L16.3654 28.0038C16.2823 27.9219 16.1993 27.9219 16.1993 27.8401C16.1162 27.8401 16.1162 27.7582 16.0331 27.7582C15.95 27.6763 15.867 27.6763 15.867 27.5944C15.7839 27.5125 15.7839 27.5125 15.7008 27.4307C15.6177 27.3488 15.5347 27.3488 15.5347 27.2669C15.4516 27.185 15.4516 27.185 15.3685 27.1031C15.2854 27.0212 15.2854 27.0212 15.2024 26.9394C15.1193 26.8575 15.1193 26.8575 15.0362 26.7756C14.9531 26.6937 14.9531 26.6118 14.8701 26.6118C14.787 26.53 14.787 26.5299 14.7039 26.4481C14.6208 26.3662 14.6208 26.2843 14.5378 26.2843C14.5378 26.2024 14.4547 26.2024 14.4547 26.1205C14.3716 26.0387 14.3716 25.9568 14.2886 25.9568V25.8749C14.2886 25.793 14.2055 25.793 14.2055 25.7111C14.1224 25.6292 14.1224 25.5474 14.0393 25.5474L13.707 25.3836C14.9531 25.793 16.1993 25.9568 17.4454 25.9568C17.5284 25.9568 17.6115 25.9568 17.6946 25.9568C17.7777 25.9568 17.8607 25.9568 17.8607 25.9568C19.4392 25.9568 21.0176 25.6292 22.5129 25.0561C22.5129 25.0561 22.5129 25.0561 22.596 25.0561C22.6791 25.0561 22.6791 25.0561 22.7621 25.0561L23.6759 24.5648C26.2512 23.2547 28.4112 21.0438 29.6573 18.4236C30.5711 16.5403 31.0696 14.4114 31.0696 12.2824C31.0696 12.0368 31.0696 11.873 31.0696 11.6274V11.5455C31.0696 11.3817 31.0695 11.1361 30.9865 10.8904V10.8086C30.9865 10.5629 30.9034 10.3991 30.9034 10.1535V10.0716C30.9034 9.82597 30.8203 9.66221 30.8203 9.41656V9.33468C30.7373 9.08903 30.7373 8.92527 30.6542 8.67962V8.59774C30.5711 8.43397 30.5711 8.27021 30.488 8.10645C31.8172 9.17091 32.9803 10.481 33.811 11.9549C34.8079 13.9201 35.3063 15.9671 35.3063 18.0961Z" fill="#05AA77"/>
<path d="M29.657 12.2823C29.657 14.2475 29.2416 16.0489 28.4109 17.7684C28.3278 17.9322 28.2447 18.0141 28.1617 18.1779C28.1617 18.1779 28.1617 18.2597 28.0786 18.2597V18.3416C27.9955 18.4235 27.9955 18.5054 27.9124 18.5873C27.9124 18.5873 27.9124 18.6692 27.8294 18.6692V18.8329C27.7463 18.9148 27.7463 18.9967 27.6632 19.0786L27.5801 19.1604V19.2423C27.4971 19.3242 27.4971 19.4061 27.414 19.488L27.3309 19.5699C27.2479 19.6517 27.2479 19.7336 27.1648 19.8155C27.1648 19.8974 27.0817 19.8974 27.0817 19.9793C26.9986 20.0612 26.9986 20.143 26.9156 20.2249C26.8325 20.3068 26.8325 20.3068 26.7494 20.3887C26.5833 20.3887 26.5833 20.4706 26.5002 20.5524C26.4171 20.6343 26.4171 20.6343 26.334 20.7162C26.251 20.7981 26.251 20.88 26.1679 20.88C26.0848 20.9619 26.0848 20.9619 26.0017 21.0437C25.9187 21.1256 25.8356 21.2075 25.8356 21.2075C25.7525 21.2894 25.7525 21.3713 25.6694 21.3713C25.5864 21.4531 25.5033 21.4531 25.5033 21.535L25.4202 21.6169C25.3371 21.6988 25.2541 21.6988 25.171 21.7807L25.0879 21.8626C25.0048 21.9444 24.9218 21.9444 24.8387 22.0263C25.2541 20.7981 25.4202 19.488 25.4202 18.1779C25.4202 18.096 25.4202 18.0141 25.4202 17.9322C25.4202 17.8503 25.4202 17.7684 25.4202 17.7684C25.4202 16.1308 25.0879 14.4932 24.5064 13.0193C24.5064 12.9374 24.5064 12.8555 24.5064 12.8555L24.008 11.8729C22.7618 9.25269 20.6019 7.04187 18.0266 5.73176C16.1159 4.91294 14.1221 4.42164 11.9622 4.42164C11.713 4.42164 11.5468 4.42164 11.2976 4.42164H11.2145C11.0484 4.42164 10.7991 4.42164 10.5499 4.50352H10.4668C10.3007 4.50352 10.0515 4.58541 9.88532 4.58541H9.80224C9.6361 4.58541 9.38687 4.66729 9.22072 4.66729H9.13765C8.88843 4.74917 8.72228 4.74917 8.55613 4.83105H8.47305C8.30691 4.91294 8.14076 4.99482 7.97461 5.0767C8.9715 3.6847 10.3007 2.45647 11.796 1.63765C13.5406 0.573176 15.6174 0 17.6943 0C22.2634 0 26.334 2.62023 28.4109 6.79623C29.2416 8.51575 29.657 10.3172 29.657 12.2823Z" fill="#05AA77"/>
<path d="M17.6956 20.8805C19.2556 20.8805 20.5201 19.6341 20.5201 18.0965C20.5201 16.5589 19.2556 15.3125 17.6956 15.3125C16.1357 15.3125 14.8711 16.5589 14.8711 18.0965C14.8711 19.6341 16.1357 20.8805 17.6956 20.8805Z" fill="#05AA77"/>
<path d="M53.0008 11.136H56.9883V24.0734C56.9883 26.2023 56.2407 27.84 54.8284 28.9044C53.4162 30.0508 51.6716 30.5421 49.6778 30.5421C46.521 30.5421 44.3611 29.4776 43.115 27.2668L46.6872 25.2197C47.3518 26.3661 48.3486 26.9392 49.844 26.9392C51.8377 26.9392 53.0008 25.8748 53.0008 23.9915V22.7633C52.0039 23.9915 50.6747 24.5647 48.9302 24.5647C47.0195 24.5647 45.358 23.9096 44.1119 22.5176C42.7827 21.1256 42.2012 19.488 42.2012 17.6047C42.2012 15.7214 42.8658 14.0837 44.1119 12.7736C45.4411 11.3816 47.0195 10.7266 48.9302 10.7266C50.6747 10.7266 52.0039 11.2997 52.9177 12.528V11.136H53.0008ZM49.5948 20.7981C50.5916 20.7981 51.3393 20.4705 52.0039 19.8974C52.6685 19.3242 52.9177 18.5873 52.9177 17.6047C52.9177 16.6221 52.5854 15.8851 52.0039 15.312C51.4224 14.7388 50.5916 14.4113 49.5948 14.4113C48.5979 14.4113 47.8502 14.7388 47.1856 15.312C46.521 15.8851 46.2718 16.6221 46.2718 17.6047C46.2718 18.5873 46.6041 19.3242 47.1856 19.8974C47.7671 20.4705 48.6809 20.7981 49.5948 20.7981Z" fill="#0A2533"/>
<path d="M64.1342 13.5097C64.6326 11.7902 66.3772 10.8076 68.2879 10.8076V15.393C67.291 15.2293 66.2941 15.393 65.4634 15.8843C64.6326 16.3756 64.1342 17.2763 64.1342 18.5045V24.6457H59.9805V11.1351H64.1342V13.5097Z" fill="#0A2533"/>
<path d="M76.4277 25.137C74.3508 25.137 72.6894 24.4819 71.2771 23.0899C69.8649 21.698 69.1172 19.9784 69.1172 18.0133C69.1172 16.0481 69.8649 14.3286 71.2771 12.9366C72.6894 11.5446 74.4339 10.8076 76.4277 10.8076C78.4215 10.8076 80.166 11.5446 81.5783 12.9366C82.9905 14.3286 83.7382 16.0481 83.7382 18.0133C83.7382 19.9784 82.9905 21.698 81.5783 23.0899C80.166 24.4819 78.5045 25.137 76.4277 25.137ZM76.4277 21.1248C77.3415 21.1248 78.0892 20.7972 78.6707 20.2241C79.2522 19.6509 79.5845 18.8321 79.5845 17.9314C79.5845 17.0307 79.2522 16.2118 78.6707 15.6387C78.0892 15.0655 77.3415 14.738 76.4277 14.738C75.5139 14.738 74.7662 15.0655 74.1847 15.6387C73.6032 16.2118 73.2709 17.0307 73.2709 17.9314C73.2709 18.8321 73.6032 19.6509 74.1847 20.2241C74.7662 20.7972 75.5139 21.1248 76.4277 21.1248Z" fill="#0A2533"/>
<path d="M100.686 11.1357H105.089L100.686 24.7282H96.8646L94.6216 17.4407L92.3786 24.7282H88.5572L84.1543 11.1357H88.5572L90.551 18.4233L92.7109 11.1357H96.5323L98.6922 18.4233L100.686 11.1357Z" fill="#0A2533"/>
<path d="M114.891 15.0659H112.067V19.897C112.067 20.9614 112.897 21.2071 114.891 21.0433V24.728C112.233 24.9737 110.488 24.728 109.408 23.9911C108.411 23.1723 107.913 21.8621 107.913 19.897V15.0659H105.67V11.1356H107.913V8.51534L112.067 7.28711V11.0537H114.891V15.0659Z" fill="#0A2533"/>
<path d="M128.931 12.2C129.928 13.1826 130.427 14.5746 130.427 16.2941V24.6461H126.273V16.8673C126.273 15.2296 125.276 14.4108 123.864 14.4108C122.285 14.4108 121.288 15.3934 121.288 17.1948V24.6461H117.135V5.64941H121.288V12.3638C122.119 11.2174 123.448 10.7261 125.193 10.7261C126.771 10.7261 128.017 11.2174 128.931 12.2Z" fill="#0A2533"/>
<path d="M142.223 11.1357H146.377V24.7282H142.223V23.4181C141.392 24.5644 140.063 25.0557 138.319 25.0557C136.823 25.0557 135.577 24.5644 134.663 23.5818C133.666 22.5993 133.168 21.2073 133.168 19.4877V11.1357H137.322V18.8327C137.322 20.4703 138.319 21.2891 139.731 21.2891C141.309 21.2891 142.306 20.3066 142.306 18.5051V11.1357H142.223Z" fill="#0A2533"/>
<path d="M155.597 16.2937C157.507 16.7031 160 17.6857 160 20.6335C160 22.1074 159.418 23.2537 158.338 23.9907C157.258 24.7276 155.846 25.137 154.267 25.137C151.36 25.137 149.366 24.0725 148.369 21.8617L151.941 19.8147C152.274 20.8791 153.104 21.4523 154.267 21.4523C155.264 21.4523 155.763 21.2067 155.763 20.6335C155.763 20.0603 154.683 19.7328 153.354 19.4052C151.443 18.914 148.951 17.9314 148.951 15.2293C148.951 13.8373 149.449 12.6909 150.529 11.954C151.609 11.1351 152.855 10.8076 154.35 10.8076C156.677 10.8076 158.587 11.8721 159.75 13.7554L156.178 15.5568C155.763 14.738 155.098 14.3286 154.35 14.3286C153.603 14.3286 153.187 14.5742 153.187 15.0655C153.187 15.6387 154.267 15.9662 155.597 16.2937Z" fill="#0A2533"/>
</svg>
