<svg width="117" height="40" viewBox="0 0 117 40" fill="none" xmlns="http://www.w3.org/2000/svg">
<path fill-rule="evenodd" clip-rule="evenodd" d="M10.8627 4.44629C9.22492 4.4475 7.89947 5.77393 7.90068 7.40841C7.89947 9.04289 9.22613 10.3693 10.8639 10.3705H13.8271V7.40962C13.8283 5.77514 12.5016 4.44871 10.8627 4.44629C10.8639 4.44629 10.8639 4.44629 10.8627 4.44629V4.44629ZM10.8627 12.3469H2.96321C1.32546 12.3481 -0.00120715 13.6745 3.30804e-06 15.309C-0.00241761 16.9435 1.32425 18.2699 2.962 18.2723H10.8627C12.5004 18.2711 13.8271 16.9447 13.8259 15.3102C13.8271 13.6745 12.5004 12.3481 10.8627 12.3469Z" fill="#C4C4C4"/>
<path fill-rule="evenodd" clip-rule="evenodd" d="M29.6267 15.309C29.6279 13.6745 28.3012 12.3481 26.6635 12.3469C25.0257 12.3481 23.699 13.6745 23.7003 15.309V18.2723H26.6635C28.3012 18.2711 29.6279 16.9447 29.6267 15.309ZM21.726 15.309V7.40841C21.7272 5.77514 20.4017 4.44871 18.764 4.44629C17.1262 4.4475 15.7996 5.77393 15.8008 7.40841V15.309C15.7984 16.9435 17.125 18.2699 18.7628 18.2723C20.4005 18.2711 21.7272 16.9447 21.726 15.309Z" fill="#C4C4C4"/>
<path fill-rule="evenodd" clip-rule="evenodd" d="M18.764 34.0734C20.4017 34.0722 21.7284 32.7457 21.7272 31.1112C21.7284 29.4768 20.4017 28.1503 18.764 28.1491H15.8008V31.1112C15.7996 32.7445 17.1262 34.0709 18.764 34.0734ZM18.764 26.1715H26.6647C28.3024 26.1703 29.6291 24.8439 29.6279 23.2094C29.6303 21.5749 28.3036 20.2485 26.6659 20.2461H18.7652C17.1274 20.2473 15.8008 21.5737 15.802 23.2082C15.8008 24.8439 17.1262 26.1703 18.764 26.1715Z" fill="#C4C4C4"/>
<path fill-rule="evenodd" clip-rule="evenodd" d="M8.27667e-07 23.2092C-0.00120963 24.8437 1.32546 26.1701 2.96321 26.1713C4.60096 26.1701 5.92763 24.8437 5.92642 23.2092V20.2471H2.96321C1.32546 20.2483 -0.00120963 21.5747 8.27667e-07 23.2092ZM7.90068 23.2092V31.1098C7.89826 32.7443 9.22492 34.0707 10.8627 34.0731C12.5004 34.0719 13.8271 32.7455 13.8259 31.111V23.2116C13.8283 21.5771 12.5016 20.2507 10.8639 20.2483C9.22492 20.2483 7.89947 21.5747 7.90068 23.2092C7.90068 23.2092 7.90068 23.2104 7.90068 23.2092Z" fill="#C4C4C4"/>
<path d="M38.3337 25.7926L41.1421 24.157C42.3766 25.9675 43.9814 26.8728 45.9566 26.8728C46.9236 26.8728 47.6849 26.6876 48.2404 26.3173C48.8165 25.9264 49.1045 25.412 49.1045 24.7742C49.1045 24.2598 48.8679 23.8072 48.3947 23.4163C47.942 23.0254 47.4585 22.7373 46.9442 22.5521C46.4298 22.3464 45.6583 22.0789 44.6295 21.7497C44.4443 21.688 44.3106 21.6468 44.2283 21.6263C43.4876 21.3794 42.8601 21.1428 42.3457 20.9164C41.8519 20.6696 41.3273 20.3506 40.7718 19.9597C40.2162 19.5482 39.7945 19.0441 39.5064 18.4475C39.2184 17.8302 39.0744 17.1204 39.0744 16.318C39.0744 14.7543 39.7327 13.4993 41.0495 12.5528C42.3663 11.6064 44.002 11.1332 45.9566 11.1332C47.4174 11.1332 48.7959 11.5241 50.0921 12.3059C51.3883 13.0672 52.3553 14.0445 52.9931 15.2378L50.4007 16.8118C49.1868 15.1452 47.7157 14.312 45.9874 14.312C45.041 14.312 44.3106 14.5074 43.7962 14.8983C43.3025 15.2687 43.0556 15.7625 43.0556 16.3797C43.0556 16.8941 43.2716 17.357 43.7037 17.7685C44.1563 18.1594 44.6192 18.4475 45.0925 18.6327C45.5657 18.8178 46.2343 19.0544 47.0985 19.3425C47.3248 19.4042 47.4894 19.4556 47.5923 19.4968C51.2546 20.6696 53.0857 22.439 53.0857 24.8051C53.0857 26.2659 52.4685 27.5106 51.234 28.5394C50.0201 29.5475 48.2918 30.0516 46.0492 30.0516C44.3209 30.0516 42.7778 29.671 41.4199 28.9097C40.0825 28.1485 39.0538 27.1094 38.3337 25.7926ZM56.4805 29.4961V4.28181H60.3692V29.4961H56.4805ZM67.8378 24.4964C67.8378 25.1548 68.095 25.7104 68.6093 26.163C69.1443 26.5951 69.8438 26.8111 70.7079 26.8111C71.9424 26.8111 72.9917 26.3996 73.8559 25.5766C74.7406 24.7536 75.1829 23.6735 75.1829 22.3361V20.7004C74.2365 20.9267 73.0946 21.1428 71.7573 21.3485C69.1443 21.76 67.8378 22.8093 67.8378 24.4964ZM63.8874 24.8359C63.8874 21.4823 66.377 19.4351 71.356 18.6944C73.1666 18.4269 74.4423 18.18 75.1829 17.9537V16.997C75.1829 16.1328 74.8743 15.4539 74.2571 14.9601C73.6398 14.4663 72.8169 14.2194 71.7881 14.2194C69.8335 14.2194 68.1464 15.0218 66.7267 16.6266L64.3504 14.5897C65.2762 13.4993 66.377 12.6557 67.6526 12.059C68.9488 11.4418 70.3067 11.1332 71.7264 11.1332C74.3805 11.1332 76.2734 11.7813 77.405 13.0775C78.5366 14.3531 79.1024 16.1431 79.1024 18.4475V29.4961H75.3064V27.274C74.936 28.0353 74.2879 28.6937 73.3621 29.2492C72.4568 29.7841 71.3869 30.0516 70.1524 30.0516C68.1978 30.0516 66.665 29.5681 65.554 28.6011C64.443 27.6341 63.8874 26.379 63.8874 24.8359ZM82.096 20.6078C82.096 17.7479 82.8573 15.4539 84.3798 13.7256C85.9229 11.9973 87.9084 11.1332 90.3362 11.1332C92.1056 11.1332 93.5973 11.6681 94.8112 12.738C96.0251 13.8079 96.7864 15.0321 97.095 16.4106L93.7619 17.3364C93.515 16.5546 93.0932 15.8859 92.4965 15.3304C91.8999 14.7543 91.1901 14.4663 90.3671 14.4663C89.0297 14.4663 87.9804 15.0527 87.2191 16.2254C86.4784 17.3982 86.1081 18.859 86.1081 20.6078C86.1081 22.5418 86.5093 24.0438 87.3117 25.1137C88.1141 26.1836 89.1326 26.7185 90.3671 26.7185C91.2724 26.7185 92.0645 26.4099 92.7434 25.7926C93.443 25.1548 93.9265 24.4347 94.194 23.6323L97.5271 24.589C97.1361 26.0293 96.2823 27.3049 94.9655 28.4159C93.6487 29.5064 92.1056 30.0516 90.3362 30.0516C87.9084 30.0516 85.9229 29.1978 84.3798 27.4901C82.8573 25.7618 82.096 23.4677 82.096 20.6078ZM100.459 29.4961V4.28181H104.348V18.787L110.674 11.6887H115.581L109.008 18.9413L115.983 29.4961H111.415L106.477 21.688L104.348 24.0335V29.4961H100.459Z" fill="#C4C4C4"/>
</svg>
