<svg width="122" height="38" viewBox="0 0 122 38" fill="none" xmlns="http://www.w3.org/2000/svg">
<path d="M70.6252 2.10217V4.86888C70.6327 5.05441 70.7127 5.2296 70.848 5.35679C70.9833 5.48399 71.1631 5.55304 71.3487 5.54913H77.7751L70.3707 16.1451C69.9026 16.8262 69.9026 17.5918 69.9026 18.0174V20.8256C69.9026 21.2512 70.3704 21.6767 70.796 21.4639C74.9662 19.2085 80.0301 19.4212 83.8175 21.4213C84.2853 21.6764 84.7108 21.2086 84.7108 20.783V17.8469C84.6681 17.4639 84.5406 17.0383 84.0725 16.783C81.9452 15.5918 79.4342 15.2514 77.0511 15.294L83.4341 6.18743C84.0299 5.33601 84.3703 4.82563 84.3703 4.44265V2.10217C84.363 1.91652 84.2831 1.74118 84.1478 1.61384C84.0125 1.48651 83.8326 1.41736 83.6468 1.42127H71.3061C71.2154 1.41644 71.1247 1.43074 71.0399 1.46325C70.9551 1.49576 70.8781 1.54574 70.8139 1.60996C70.7497 1.67418 70.6997 1.75119 70.6672 1.83599C70.6347 1.92079 70.6204 2.01148 70.6252 2.10217Z" fill="#C4C4C4"/>
<path d="M21.9009 22.0174H25.6457C25.8295 22.024 26.0093 21.9626 26.1506 21.8448C26.292 21.727 26.3849 21.5613 26.4116 21.3793V11.1662C26.4116 11.0995 26.4116 11.0321 26.4115 10.9641C26.409 8.73226 26.4058 5.84691 29.0074 5.84691C31.3829 5.84691 31.3436 8.43417 31.3122 10.5028C31.3087 10.7317 31.3053 10.9542 31.3053 11.1662V21.3793C31.3053 21.7198 31.6032 22.0176 31.9862 22.0602H35.731C35.9167 22.064 36.0965 21.9949 36.2318 21.8675C36.3671 21.7402 36.447 21.5649 36.4543 21.3793V11.1662C36.4543 11.0687 36.454 10.9672 36.4537 10.8626C36.4501 9.77978 36.4455 8.35647 36.7947 7.46403C36.9762 7.01024 37.2863 6.6194 37.6871 6.33964C38.0878 6.05989 38.5616 5.90342 39.0501 5.88951C40.1566 5.88951 40.9652 6.27249 41.263 7.54909C41.3965 8.15018 41.3728 9.53743 41.3565 10.4976C41.352 10.7609 41.348 10.9921 41.348 11.1662V21.3793C41.348 21.7198 41.646 22.0176 42.0289 22.0602H45.7316C45.9173 22.064 46.0972 21.9949 46.2324 21.8675C46.3677 21.7402 46.4476 21.5649 46.455 21.3793V9.20881C46.455 8.8987 46.4606 8.58295 46.4663 8.26476C46.4988 6.44349 46.5327 4.54269 45.5187 3.16618C44.4549 1.67672 42.7527 1.03842 41.1782 1.03842C38.9651 1.03842 36.8797 2.18736 35.9863 4.61291C34.9649 2.18736 33.4756 1.03842 31.1351 1.03842C28.8372 1.03842 27.0921 2.18736 26.1988 4.61291H26.1137V2.10217C26.1 1.93013 26.0226 1.7694 25.8967 1.65136C25.7708 1.53333 25.6054 1.46648 25.4328 1.46387H21.9434C21.7577 1.45999 21.5778 1.52915 21.4426 1.65648C21.3073 1.78381 21.2274 1.95914 21.22 2.14477V21.3791C21.2477 21.5455 21.3294 21.6981 21.4525 21.8135C21.5755 21.9289 21.7331 22.0005 21.9009 22.0174Z" fill="#C4C4C4"/>
<path fill-rule="evenodd" clip-rule="evenodd" d="M103.605 11.8897C103.605 5.80445 100.583 1.03842 95.0087 1.03842C89.5618 1.03842 86.5404 5.71926 86.583 11.7194C86.583 17.677 89.5618 22.443 95.0087 22.443C100.286 22.443 103.605 17.7622 103.605 11.8897ZM92.0725 11.1237C92.0725 8.78323 92.2427 4.99589 95.0087 4.99589C96.2003 4.99589 97.0513 5.5064 97.4769 6.8682C97.9451 8.40025 98.0301 10.3576 98.0301 11.9747C98.0301 14.4429 97.86 18.4855 94.9663 18.4855C92.0707 18.4855 92.0719 13.6027 92.0725 11.2227L92.0725 11.1237Z" fill="#C4C4C4"/>
<path d="M107.052 22.0174H110.796C110.985 22.0157 111.166 21.9462 111.307 21.821C111.448 21.6958 111.538 21.5238 111.562 21.3369V10.9532C111.562 9.634 111.647 8.48467 112.158 7.29352C112.583 6.35717 113.435 5.76159 114.328 5.76159C116.715 5.76159 116.691 8.35309 116.672 10.4245C116.67 10.6055 116.668 10.7825 116.668 10.9535V21.4215C116.711 21.7193 117.009 21.9745 117.349 22.0171H121.094C121.267 22.0247 121.437 21.9681 121.57 21.8581C121.704 21.7482 121.792 21.5926 121.818 21.4215V9.29361C121.818 7.42118 121.818 4.82537 120.839 3.29345C119.775 1.63361 118.116 1.03803 116.456 1.03803C113.86 1.03803 112.413 2.27204 111.35 4.91044H111.264V1.97425C111.227 1.82051 111.14 1.68332 111.017 1.58347C110.894 1.48363 110.742 1.42659 110.584 1.42101H107.094C106.917 1.42236 106.746 1.48768 106.613 1.60496C106.48 1.72225 106.394 1.88359 106.371 2.05931V21.3365C106.371 21.6771 106.669 21.9748 107.052 22.0174Z" fill="#C4C4C4"/>
<path fill-rule="evenodd" clip-rule="evenodd" d="M64.1499 22.1613C64.3101 22.146 64.4616 22.0808 64.5828 21.975L64.5843 21.9748C64.8562 21.7482 65.2032 21.4519 65.5738 21.1354C66.2473 20.5603 66.9989 19.9184 67.5205 19.5067C67.8183 19.294 67.7758 18.8684 67.5205 18.528C67.4384 18.4101 67.3558 18.2953 67.2739 18.1815C66.6758 17.3506 66.1162 16.5732 66.1162 15.0386V9.20868C66.1162 9.01385 66.1173 8.82008 66.1183 8.62756C66.1306 6.38193 66.142 4.30825 64.4566 2.74047C63.0098 1.33621 60.6268 0.868164 58.797 0.868164C55.2225 0.868164 51.2649 2.18736 50.4139 6.61301C50.3288 7.08118 50.6693 7.2939 50.9671 7.37897L54.5842 7.76195C54.9247 7.76195 55.1374 7.42144 55.2225 7.08105C55.5204 5.549 56.797 4.82563 58.2439 4.82563C59.0092 4.82563 59.8603 5.12342 60.3284 5.80432C60.8174 6.48152 60.8076 7.3918 60.7987 8.21107C60.7976 8.31845 60.7964 8.42426 60.7964 8.52778V8.99583C60.4436 9.03734 60.0727 9.07662 59.6903 9.11712C57.7206 9.32571 55.4429 9.56693 53.7325 10.315C51.3914 11.3364 49.7318 13.379 49.7318 16.4429C49.7318 20.3153 52.1999 22.2728 55.349 22.2728C57.9872 22.2728 59.4767 21.6338 61.5193 19.5493C61.6187 19.6922 61.7091 19.8251 61.7948 19.9512C62.2959 20.6881 62.6357 21.1879 63.6895 22.06C63.8286 22.1411 63.9896 22.1765 64.1499 22.1613ZM60.7958 13.0544C60.7956 12.9788 60.7955 12.9027 60.7955 12.8259V12.018C58.072 12.018 55.2209 12.6138 55.2209 15.8053C55.2209 17.4224 56.0719 18.5288 57.5188 18.5288C58.5827 18.5288 59.519 17.8905 60.1146 16.8266C60.7997 15.5768 60.7979 14.4039 60.7958 13.0544Z" fill="#C4C4C4"/>
<path fill-rule="evenodd" clip-rule="evenodd" d="M14.9571 22.1613C15.1174 22.146 15.2688 22.0808 15.3901 21.975L15.3916 21.9748C15.6635 21.7483 16.0104 21.4519 16.3811 21.1354C17.0546 20.5603 17.8062 19.9184 18.3277 19.5067C18.6255 19.294 18.5831 18.8684 18.3277 18.528C18.2457 18.4101 18.1631 18.2953 18.0811 18.1815C17.483 17.3506 16.9235 16.5732 16.9235 15.0386V9.20868C16.9235 9.01385 16.9245 8.82008 16.9256 8.62757C16.9379 6.38193 16.9493 4.30825 15.2639 2.74047C13.817 1.33621 11.4341 0.868164 9.60424 0.868164C6.02975 0.868164 2.07215 2.18736 1.22113 6.61301C1.13606 7.08118 1.47658 7.2939 1.77436 7.37897L5.39145 7.76195C5.73196 7.76195 5.94469 7.42144 6.02975 7.08105C6.32767 5.549 7.60427 4.82563 9.05113 4.82563C9.81645 4.82563 10.6676 5.12342 11.1356 5.80432C11.6247 6.48152 11.6148 7.39181 11.606 8.21107C11.6048 8.31845 11.6037 8.42426 11.6037 8.52778V8.99583C11.2509 9.03734 10.88 9.07662 10.4976 9.11712C8.52791 9.32571 6.25021 9.56693 4.53978 10.315C2.19865 11.3364 0.539062 13.379 0.539062 16.4429C0.539062 20.3153 3.0072 22.2728 6.15625 22.2728C8.79452 22.2728 10.284 21.6338 12.3265 19.5493C12.426 19.6922 12.5164 19.8252 12.6021 19.9512C13.1031 20.6881 13.4429 21.1879 14.4968 22.06C14.6358 22.1411 14.7969 22.1765 14.9571 22.1613ZM11.6456 13.0544C11.6455 12.9788 11.6454 12.9027 11.6454 12.8259V12.018C8.92192 12.018 6.07079 12.6138 6.07079 15.8053C6.07079 17.4224 6.92182 18.5288 8.36868 18.5288C9.43256 18.5288 10.3689 17.8905 10.9645 16.8266C11.6496 15.5768 11.6477 14.4039 11.6456 13.0544Z" fill="#C4C4C4"/>
<path d="M78.71 26.0601C77.8166 24.9112 72.7524 25.5069 70.4971 25.8048C69.8162 25.8898 69.6885 25.2941 70.3269 24.8686C74.3695 22.0174 80.9654 22.8685 81.7313 23.8047C82.4973 24.7409 81.5186 31.3789 77.7306 34.5283C77.1351 34.9963 76.5817 34.741 76.8373 34.1027L76.8818 33.9914C77.7533 31.8146 79.5883 27.2309 78.71 26.0601Z" fill="#C4C4C4"/>
<path d="M75.774 29.4221C68.7525 34.614 58.5396 37.3798 49.7309 37.3798C37.3902 37.3798 26.3262 32.8265 17.9005 25.2519C17.2622 24.6564 17.8154 23.8477 18.6238 24.3157C27.6879 29.5924 38.8796 32.7414 50.4542 32.7414C58.2417 32.7414 66.8375 31.1245 74.7526 27.7626C75.9437 27.2945 76.9229 28.5711 75.774 29.4221Z" fill="#C4C4C4"/>
</svg>
